<svg id="visual" viewBox="0 0 900 600" width="900" height="600" xmlns="http://www.w3.org/2000/svg" xmlns:xlink="http://www.w3.org/1999/xlink" version="1.1"><g stroke-width="1" stroke-linejoin="bevel"><path d="M483 321.9L525 421.6L576 342.9Z" fill="#535966" stroke="#535966"></path><path d="M483 321.9L491 441.6L525 421.6Z" fill="#393d47" stroke="#393d47"></path><path d="M525 421.6L620 358.9L576 342.9Z" fill="#454b56" stroke="#454b56"></path><path d="M491 441.6L524 482.3L525 421.6Z" fill="#67707e" stroke="#67707e"></path><path d="M525 421.6L665 469.6L620 358.9Z" fill="#454b56" stroke="#454b56"></path><path d="M483 321.9L399 396.6L491 441.6Z" fill="#32363f" stroke="#32363f"></path><path d="M491 441.6L463 536.3L524 482.3Z" fill="#67707e" stroke="#67707e"></path><path d="M627 255.1L565 236.1L576 342.9Z" fill="#32363f" stroke="#32363f"></path><path d="M576 342.9L565 236.1L483 321.9Z" fill="#67707e" stroke="#67707e"></path><path d="M483 321.9L379 333.9L399 396.6Z" fill="#6e7886" stroke="#6e7886"></path><path d="M417 227.1L379 333.9L483 321.9Z" fill="#6e7886" stroke="#6e7886"></path><path d="M620 358.9L627 255.1L576 342.9Z" fill="#2c2f38" stroke="#2c2f38"></path><path d="M565 236.1L417 227.1L483 321.9Z" fill="#606876" stroke="#606876"></path><path d="M524 482.3L665 469.6L525 421.6Z" fill="#59616e" stroke="#59616e"></path><path d="M620 358.9L715 283.1L627 255.1Z" fill="#606876" stroke="#606876"></path><path d="M399 396.6L463 536.3L491 441.6Z" fill="#4c525e" stroke="#4c525e"></path><path d="M524 482.3L632 525.3L665 469.6Z" fill="#606876" stroke="#606876"></path><path d="M417 227.1L340 296.1L379 333.9Z" fill="#454b56" stroke="#454b56"></path><path d="M274 455.6L328 485.3L399 396.6Z" fill="#454b56" stroke="#454b56"></path><path d="M399 396.6L328 485.3L463 536.3Z" fill="#67707e" stroke="#67707e"></path><path d="M581 600L632 525.3L524 482.3Z" fill="#393d47" stroke="#393d47"></path><path d="M745 310.9L715 283.1L620 358.9Z" fill="#3f444e" stroke="#3f444e"></path><path d="M565 236.1L448 167.4L417 227.1Z" fill="#3f444e" stroke="#3f444e"></path><path d="M417 227.1L373 194.4L340 296.1Z" fill="#59616e" stroke="#59616e"></path><path d="M563 138.4L448 167.4L565 236.1Z" fill="#32363f" stroke="#32363f"></path><path d="M563 138.4L565 236.1L634 151.4Z" fill="#32363f" stroke="#32363f"></path><path d="M448 167.4L373 194.4L417 227.1Z" fill="#535966" stroke="#535966"></path><path d="M751 426.6L745 310.9L620 358.9Z" fill="#67707e" stroke="#67707e"></path><path d="M282 333.9L399 396.6L379 333.9Z" fill="#6e7886" stroke="#6e7886"></path><path d="M634 151.4L627 255.1L723 190.4Z" fill="#32363f" stroke="#32363f"></path><path d="M634 151.4L565 236.1L627 255.1Z" fill="#59616e" stroke="#59616e"></path><path d="M735 554.3L751 426.6L665 469.6Z" fill="#393d47" stroke="#393d47"></path><path d="M665 469.6L751 426.6L620 358.9Z" fill="#606876" stroke="#606876"></path><path d="M723 190.4L627 255.1L715 283.1Z" fill="#606876" stroke="#606876"></path><path d="M287 229.1L282 333.9L340 296.1Z" fill="#4c525e" stroke="#4c525e"></path><path d="M340 296.1L282 333.9L379 333.9Z" fill="#606876" stroke="#606876"></path><path d="M345 600L467 600L463 536.3Z" fill="#6e7886" stroke="#6e7886"></path><path d="M463 536.3L581 600L524 482.3Z" fill="#606876" stroke="#606876"></path><path d="M467 600L581 600L463 536.3Z" fill="#2c2f38" stroke="#2c2f38"></path><path d="M632 525.3L735 554.3L665 469.6Z" fill="#606876" stroke="#606876"></path><path d="M550 60.7L465 119.7L563 138.4Z" fill="#606876" stroke="#606876"></path><path d="M563 138.4L465 119.7L448 167.4Z" fill="#2c2f38" stroke="#2c2f38"></path><path d="M448 167.4L339 126.7L373 194.4Z" fill="#606876" stroke="#606876"></path><path d="M581 600L632 600L632 525.3Z" fill="#454b56" stroke="#454b56"></path><path d="M793 353.9L768 269.1L745 310.9Z" fill="#3f444e" stroke="#3f444e"></path><path d="M745 310.9L768 269.1L715 283.1Z" fill="#393d47" stroke="#393d47"></path><path d="M282 333.9L274 455.6L399 396.6Z" fill="#4c525e" stroke="#4c525e"></path><path d="M328 485.3L345 600L463 536.3Z" fill="#393d47" stroke="#393d47"></path><path d="M768 269.1L723 190.4L715 283.1Z" fill="#4c525e" stroke="#4c525e"></path><path d="M751 426.6L793 353.9L745 310.9Z" fill="#2c2f38" stroke="#2c2f38"></path><path d="M373 194.4L287 229.1L340 296.1Z" fill="#2c2f38" stroke="#2c2f38"></path><path d="M141 422.6L243 479.3L274 455.6Z" fill="#4c525e" stroke="#4c525e"></path><path d="M339 126.7L287 229.1L373 194.4Z" fill="#2c2f38" stroke="#2c2f38"></path><path d="M717 600L735 554.3L632 525.3Z" fill="#393d47" stroke="#393d47"></path><path d="M751 426.6L847 434.6L793 353.9Z" fill="#67707e" stroke="#67707e"></path><path d="M244 600L345 600L328 485.3Z" fill="#3f444e" stroke="#3f444e"></path><path d="M699 91.7L615 79.7L634 151.4Z" fill="#2c2f38" stroke="#2c2f38"></path><path d="M634 151.4L615 79.7L563 138.4Z" fill="#67707e" stroke="#67707e"></path><path d="M358 0L339 126.7L465 119.7Z" fill="#3f444e" stroke="#3f444e"></path><path d="M465 119.7L339 126.7L448 167.4Z" fill="#2c2f38" stroke="#2c2f38"></path><path d="M141 422.6L274 455.6L282 333.9Z" fill="#2c2f38" stroke="#2c2f38"></path><path d="M274 455.6L243 479.3L328 485.3Z" fill="#454b56" stroke="#454b56"></path><path d="M615 79.7L550 60.7L563 138.4Z" fill="#6e7886" stroke="#6e7886"></path><path d="M723 190.4L699 91.7L634 151.4Z" fill="#2c2f38" stroke="#2c2f38"></path><path d="M768 269.1L776 193.4L723 190.4Z" fill="#3f444e" stroke="#3f444e"></path><path d="M900 237.1L776 193.4L768 269.1Z" fill="#67707e" stroke="#67707e"></path><path d="M632 600L717 600L632 525.3Z" fill="#606876" stroke="#606876"></path><path d="M782 600L791 520.3L735 554.3Z" fill="#59616e" stroke="#59616e"></path><path d="M735 554.3L791 520.3L751 426.6Z" fill="#59616e" stroke="#59616e"></path><path d="M776 193.4L699 91.7L723 190.4Z" fill="#454b56" stroke="#454b56"></path><path d="M628 0L516 0L550 60.7Z" fill="#32363f" stroke="#32363f"></path><path d="M791 520.3L847 434.6L751 426.6Z" fill="#4c525e" stroke="#4c525e"></path><path d="M793 353.9L900 309.9L768 269.1Z" fill="#3f444e" stroke="#3f444e"></path><path d="M247 163.4L206 262.1L287 229.1Z" fill="#454b56" stroke="#454b56"></path><path d="M287 229.1L206 262.1L282 333.9Z" fill="#393d47" stroke="#393d47"></path><path d="M339 126.7L247 163.4L287 229.1Z" fill="#3f444e" stroke="#3f444e"></path><path d="M717 600L782 600L735 554.3Z" fill="#2c2f38" stroke="#2c2f38"></path><path d="M900 483.3L900 454.6L847 434.6Z" fill="#6e7886" stroke="#6e7886"></path><path d="M628 0L550 60.7L615 79.7Z" fill="#535966" stroke="#535966"></path><path d="M550 60.7L487 0L465 119.7Z" fill="#4c525e" stroke="#4c525e"></path><path d="M339 126.7L235 95.7L247 163.4Z" fill="#32363f" stroke="#32363f"></path><path d="M243 479.3L244 600L328 485.3Z" fill="#4c525e" stroke="#4c525e"></path><path d="M181 600L244 600L243 479.3Z" fill="#3f444e" stroke="#3f444e"></path><path d="M516 0L487 0L550 60.7Z" fill="#67707e" stroke="#67707e"></path><path d="M86 255.1L149 335.9L206 262.1Z" fill="#3f444e" stroke="#3f444e"></path><path d="M206 262.1L149 335.9L282 333.9Z" fill="#393d47" stroke="#393d47"></path><path d="M694 0L628 0L615 79.7Z" fill="#2c2f38" stroke="#2c2f38"></path><path d="M900 454.6L900 309.9L847 434.6Z" fill="#2c2f38" stroke="#2c2f38"></path><path d="M847 434.6L900 309.9L793 353.9Z" fill="#393d47" stroke="#393d47"></path><path d="M796 0L694 0L699 91.7Z" fill="#606876" stroke="#606876"></path><path d="M699 91.7L694 0L615 79.7Z" fill="#59616e" stroke="#59616e"></path><path d="M149 335.9L141 422.6L282 333.9Z" fill="#535966" stroke="#535966"></path><path d="M900 483.3L847 434.6L791 520.3Z" fill="#4c525e" stroke="#4c525e"></path><path d="M358 0L235 95.7L339 126.7Z" fill="#67707e" stroke="#67707e"></path><path d="M247 163.4L144 208.4L206 262.1Z" fill="#606876" stroke="#606876"></path><path d="M900 600L900 483.3L791 520.3Z" fill="#6e7886" stroke="#6e7886"></path><path d="M900 309.9L900 237.1L768 269.1Z" fill="#59616e" stroke="#59616e"></path><path d="M487 0L358 0L465 119.7Z" fill="#4c525e" stroke="#4c525e"></path><path d="M141 422.6L140 487.3L243 479.3Z" fill="#4c525e" stroke="#4c525e"></path><path d="M810 68.7L699 91.7L776 193.4Z" fill="#393d47" stroke="#393d47"></path><path d="M127 160.4L144 208.4L247 163.4Z" fill="#3f444e" stroke="#3f444e"></path><path d="M57 453.6L92 491.3L141 422.6Z" fill="#67707e" stroke="#67707e"></path><path d="M141 422.6L92 491.3L140 487.3Z" fill="#454b56" stroke="#454b56"></path><path d="M900 181.4L810 68.7L776 193.4Z" fill="#535966" stroke="#535966"></path><path d="M140 487.3L181 600L243 479.3Z" fill="#59616e" stroke="#59616e"></path><path d="M900 237.1L900 181.4L776 193.4Z" fill="#6e7886" stroke="#6e7886"></path><path d="M167 80.7L127 160.4L247 163.4Z" fill="#6e7886" stroke="#6e7886"></path><path d="M144 208.4L86 255.1L206 262.1Z" fill="#3f444e" stroke="#3f444e"></path><path d="M167 80.7L247 163.4L235 95.7Z" fill="#4c525e" stroke="#4c525e"></path><path d="M782 600L900 600L791 520.3Z" fill="#535966" stroke="#535966"></path><path d="M61 300.9L141 422.6L149 335.9Z" fill="#3f444e" stroke="#3f444e"></path><path d="M140 487.3L80 600L181 600Z" fill="#67707e" stroke="#67707e"></path><path d="M127 160.4L86 255.1L144 208.4Z" fill="#454b56" stroke="#454b56"></path><path d="M239 0L167 80.7L235 95.7Z" fill="#606876" stroke="#606876"></path><path d="M900 0L796 0L810 68.7Z" fill="#67707e" stroke="#67707e"></path><path d="M810 68.7L796 0L699 91.7Z" fill="#535966" stroke="#535966"></path><path d="M358 0L239 0L235 95.7Z" fill="#393d47" stroke="#393d47"></path><path d="M0 351.9L61 300.9L0 226.1Z" fill="#67707e" stroke="#67707e"></path><path d="M86 255.1L61 300.9L149 335.9Z" fill="#3f444e" stroke="#3f444e"></path><path d="M900 181.4L900 82.7L810 68.7Z" fill="#32363f" stroke="#32363f"></path><path d="M61 300.9L57 453.6L141 422.6Z" fill="#454b56" stroke="#454b56"></path><path d="M92 491.3L80 600L140 487.3Z" fill="#67707e" stroke="#67707e"></path><path d="M0 495.3L80 600L92 491.3Z" fill="#59616e" stroke="#59616e"></path><path d="M239 0L151 0L167 80.7Z" fill="#4c525e" stroke="#4c525e"></path><path d="M167 80.7L76 57.7L127 160.4Z" fill="#67707e" stroke="#67707e"></path><path d="M0 226.1L61 300.9L86 255.1Z" fill="#67707e" stroke="#67707e"></path><path d="M0 226.1L86 255.1L127 160.4Z" fill="#67707e" stroke="#67707e"></path><path d="M61 300.9L0 351.9L57 453.6Z" fill="#6e7886" stroke="#6e7886"></path><path d="M57 453.6L0 495.3L92 491.3Z" fill="#535966" stroke="#535966"></path><path d="M900 82.7L900 0L810 68.7Z" fill="#67707e" stroke="#67707e"></path><path d="M0 351.9L0 417.6L57 453.6Z" fill="#454b56" stroke="#454b56"></path><path d="M0 417.6L0 495.3L57 453.6Z" fill="#6e7886" stroke="#6e7886"></path><path d="M0 134.4L0 226.1L127 160.4Z" fill="#59616e" stroke="#59616e"></path><path d="M151 0L76 57.7L167 80.7Z" fill="#2c2f38" stroke="#2c2f38"></path><path d="M151 0L96 0L76 57.7Z" fill="#393d47" stroke="#393d47"></path><path d="M76 57.7L0 134.4L127 160.4Z" fill="#6e7886" stroke="#6e7886"></path><path d="M0 82.7L0 134.4L76 57.7Z" fill="#67707e" stroke="#67707e"></path><path d="M0 495.3L0 600L80 600Z" fill="#59616e" stroke="#59616e"></path><path d="M0 0L0 82.7L76 57.7Z" fill="#6e7886" stroke="#6e7886"></path><path d="M96 0L0 0L76 57.7Z" fill="#4c525e" stroke="#4c525e"></path></g></svg>